<?xml version="1.0" standalone="no"?>
<!DOCTYPE svg PUBLIC "-//W3C//DTD SVG 20010904//EN"
 "http://www.w3.org/TR/2001/REC-SVG-20010904/DTD/svg10.dtd">
<svg version="1.0" xmlns="http://www.w3.org/2000/svg"
 width="456.000000pt" height="456.000000pt" viewBox="0 0 456.000000 456.000000"
 preserveAspectRatio="xMidYMid meet">
<metadata>
Created by potrace 1.11, written by Peter Selinger 2001-2013
</metadata>
<g transform="translate(0.000000,456.000000) scale(0.100000,-0.100000)"
fill="#000000" stroke="none">
<path d="M2506 4420 c-21 -11 -43 -24 -50 -29 -6 -5 -38 -23 -70 -40 -68 -36
-120 -40 -171 -11 -20 11 -40 20 -46 20 -5 0 -19 9 -30 19 -36 34 -57 32 -100
-6 -32 -29 -42 -33 -54 -23 -8 7 -15 18 -15 25 0 13 -21 25 -45 25 -13 0 -84
-65 -102 -93 -5 -7 -30 -27 -57 -46 -48 -32 -53 -33 -113 -27 -59 6 -63 5 -63
-14 0 -18 3 -19 22 -9 18 10 24 8 40 -11 21 -26 20 -49 -2 -60 -63 -31 -71
-33 -82 -22 -9 9 -9 18 0 37 15 34 16 32 -13 39 -29 7 -34 43 -7 53 13 6 9 9
-18 16 -85 22 -119 20 -153 -6 -18 -14 -44 -47 -57 -73 -14 -27 -28 -50 -32
-52 -5 -2 -8 -12 -8 -23 0 -10 -4 -19 -10 -19 -5 0 -10 -5 -10 -11 0 -24 -42
-68 -85 -88 -30 -14 -65 -21 -106 -21 -90 0 -117 -21 -87 -70 20 -32 -11 -75
-54 -75 -50 0 -107 -51 -115 -101 -3 -21 -13 -47 -21 -56 -14 -17 -13 -18 11
-18 35 0 41 -13 19 -40 -16 -19 -22 -21 -40 -11 -18 9 -29 8 -64 -10 -24 -12
-78 -34 -121 -49 -43 -15 -89 -37 -103 -49 l-25 -22 21 -26 c26 -34 25 -39 -7
-55 -20 -10 -27 -19 -23 -33 3 -11 5 -64 5 -119 l0 -99 -65 -58 c-35 -33 -69
-59 -73 -59 -5 0 -25 -13 -44 -30 -18 -16 -37 -30 -41 -30 -4 0 -13 -14 -21
-31 -10 -24 -11 -36 -2 -55 6 -14 11 -38 11 -55 0 -16 8 -42 17 -56 43 -65 54
-154 30 -226 -8 -20 -35 -58 -60 -84 -27 -27 -47 -56 -47 -68 0 -12 -9 -30
-20 -40 -11 -10 -20 -28 -20 -39 0 -40 70 -155 129 -210 17 -17 31 -40 31 -53
0 -16 6 -23 20 -23 43 0 30 -89 -17 -107 -23 -9 -83 -147 -83 -191 1 -41 19
-72 43 -72 8 0 17 -6 19 -14 2 -8 30 -34 63 -59 51 -39 62 -43 82 -34 34 15
51 -4 37 -42 -9 -22 -8 -34 4 -56 11 -22 13 -50 9 -117 -5 -82 -4 -88 14 -88
24 0 24 -21 -1 -52 -18 -24 -18 -26 -2 -59 15 -29 28 -37 95 -60 43 -15 81
-30 84 -33 4 -3 12 -6 20 -6 59 0 136 -116 148 -225 9 -76 25 -116 60 -143 24
-19 41 -22 116 -22 48 0 91 -4 94 -10 3 -5 24 -10 46 -10 21 0 39 -4 39 -8 0
-4 12 -15 28 -24 26 -16 36 -31 104 -158 47 -88 62 -100 127 -99 31 0 50 3 44
6 -22 8 -14 51 13 72 35 28 62 35 79 21 19 -16 19 -50 1 -50 -7 0 -19 -7 -26
-15 -10 -13 -9 -15 8 -15 11 0 43 5 71 12 82 19 115 3 219 -103 81 -82 93 -92
133 -96 43 -5 129 21 129 39 0 5 7 8 15 8 9 0 18 6 21 14 3 8 19 18 35 21 16
4 31 11 34 16 4 5 16 9 29 9 12 0 26 4 32 10 6 6 24 4 51 -5 41 -14 44 -14 79
10 39 26 117 35 129 15 11 -18 -24 -60 -50 -60 -13 0 -27 -5 -30 -11 -10 -15
25 -38 56 -39 15 0 30 -7 33 -16 5 -13 16 -15 52 -11 42 4 55 13 138 94 113
112 131 120 234 103 42 -7 81 -17 86 -21 6 -5 40 -9 76 -9 59 0 69 3 92 27 14
16 45 65 69 111 48 94 101 146 157 157 20 3 82 10 137 14 55 4 107 11 115 15
8 3 21 21 28 39 7 17 18 40 23 49 5 10 9 31 9 47 0 17 5 33 10 36 6 3 10 25
10 49 0 46 48 136 73 136 8 0 22 9 32 20 10 11 28 20 39 20 32 0 91 23 110 43
10 9 29 20 44 24 15 3 32 12 39 19 16 15 18 200 3 209 -13 8 -13 51 1 77 8 15
8 22 -1 28 -8 5 3 22 35 54 27 25 52 46 58 46 9 0 105 69 135 98 15 14 20 104
8 141 l-8 24 -19 -24 c-10 -13 -19 -30 -19 -36 0 -18 -35 -16 -49 1 -9 11 -9
19 1 37 10 17 10 23 1 26 -7 3 -13 18 -13 34 0 25 4 29 26 29 25 0 26 2 20 37
-14 69 -6 116 25 165 17 25 37 52 45 58 7 7 14 21 14 31 0 10 8 20 18 23 20 7
62 78 62 105 0 10 -9 26 -20 36 -11 10 -20 23 -20 30 0 7 -9 20 -20 30 -11 10
-20 26 -20 36 0 9 -15 30 -32 46 -32 28 -68 90 -68 117 0 8 -7 17 -16 20 -23
9 -14 50 12 54 20 3 50 49 39 60 -3 3 -5 0 -5 -6 0 -7 -11 -12 -25 -12 -15 0
-25 -6 -25 -15 0 -8 -14 -22 -30 -30 -28 -14 -31 -14 -37 0 -3 9 -1 21 6 28 6
6 11 18 11 27 0 20 74 70 104 70 35 0 46 20 46 85 0 56 -3 64 -32 92 -18 16
-55 45 -83 63 -66 45 -115 98 -115 127 0 13 -6 32 -12 43 -10 16 -10 24 0 40
7 12 12 56 12 111 0 120 -18 147 -117 179 -147 48 -215 94 -227 153 -7 32 -16
87 -23 130 -3 20 -9 40 -14 43 -5 3 -9 13 -9 22 -1 58 -78 92 -212 92 -48 0
-90 5 -93 10 -3 6 -15 10 -25 10 -30 0 -73 51 -118 142 -77 152 -108 168 -247
128 -142 -41 -174 -38 -242 16 -26 22 -51 44 -56 51 -14 22 -83 88 -105 101
-31 18 -91 14 -136 -8z m-586 -119 c0 -23 -49 -39 -61 -20 -13 21 2 39 32 39
22 0 29 -5 29 -19z m-13 -107 c7 -19 -20 -49 -36 -40 -12 8 -15 39 -4 49 12
12 33 7 40 -9z m-417 -29 c6 -8 9 -23 5 -35 -5 -16 -15 -20 -46 -20 -32 0 -39
3 -39 19 0 20 34 51 56 51 6 0 17 -7 24 -15z m430 -139 c0 -17 -47 -76 -61
-76 -4 0 -13 9 -18 19 -8 14 -6 25 10 45 22 28 69 36 69 12z m-845 -86 c12
-20 -6 -50 -31 -50 -18 0 -24 5 -24 23 0 13 3 27 7 30 10 10 41 8 48 -3z m508
-41 c8 -12 6 -26 -6 -50 -28 -56 -42 -69 -77 -69 -30 0 -32 2 -26 28 7 27 12
61 15 95 1 15 8 18 42 15 25 -2 46 -10 52 -19z m-345 -26 c-2 -22 -8 -28 -28
-28 -20 0 -26 6 -28 28 -3 24 0 27 28 27 28 0 31 -3 28 -27z m106 -29 c11 -30
-21 -64 -59 -64 -28 0 -35 4 -35 19 0 23 44 61 70 61 10 0 21 -7 24 -16z
m2013 -34 c5 -19 6 -19 33 2 36 26 59 19 52 -17 -7 -37 -46 -61 -75 -47 -12 6
-33 12 -47 14 -30 4 -37 29 -15 52 22 22 46 20 52 -4z m-1697 -15 c10 -12 15
-12 34 0 13 8 26 12 29 8 9 -9 9 -55 -1 -68 -10 -15 -49 -35 -67 -35 -15 0
-24 -3 -82 -34 -37 -19 -65 -12 -61 16 3 21 76 68 104 68 13 0 14 3 4 15 -15
18 -6 45 13 45 8 0 20 -7 27 -15z m-552 -104 c2 -23 -3 -40 -18 -56 -14 -15
-20 -30 -16 -42 4 -13 -5 -29 -30 -54 l-35 -34 28 -5 c25 -5 28 -10 31 -48 2
-38 0 -43 -24 -52 -19 -8 -31 -7 -38 0 -5 5 -18 10 -28 10 -10 0 -18 6 -18 13
-1 26 -50 -50 -50 -78 0 -33 -53 -95 -82 -95 -15 0 -18 8 -18 44 0 24 4 46 8
48 15 6 52 66 52 85 0 11 23 46 50 77 55 62 60 76 31 76 -11 0 -23 5 -27 11
-10 17 17 59 38 59 11 0 18 7 18 20 0 24 64 61 100 57 21 -2 26 -8 28 -36z
m193 8 l22 -22 -24 -18 c-49 -37 -85 -13 -54 35 21 32 29 32 56 5z m128 -32
c8 -11 6 -18 -9 -32 -23 -21 -50 -13 -50 14 0 29 39 41 59 18z m-219 -28 c9
-15 8 -33 -1 -70 -12 -45 -11 -52 9 -90 26 -48 28 -76 7 -99 -14 -15 -14 -18
0 -30 13 -11 19 -9 38 9 32 29 57 28 57 -4 0 -17 -12 -32 -42 -53 -56 -38
-103 -62 -123 -62 -20 0 -20 58 0 87 13 19 13 22 0 27 -12 4 -15 24 -15 85 0
44 -4 83 -10 86 -18 11 -11 60 10 73 11 7 20 21 20 31 0 17 11 28 32 30 4 1
12 -8 18 -20z m406 -45 c14 -30 15 -39 4 -60 -17 -31 -56 -32 -66 -1 -12 38
-11 61 4 80 23 26 39 21 58 -19z m-238 -7 c6 -29 -26 -59 -49 -46 -19 10 -26
49 -12 63 14 14 58 1 61 -17z m-83 2 c8 -11 -22 -38 -42 -39 -14 0 -18 32 -6
43 10 11 41 8 48 -4z m-668 -148 c15 -19 17 -58 3 -66 -17 -11 -11 -44 10 -55
27 -14 25 -36 -4 -55 -29 -19 -82 -17 -78 4 1 7 -5 19 -14 26 -11 7 -15 19
-11 29 4 10 0 24 -8 33 -18 17 -12 44 18 85 16 22 26 26 46 21 14 -3 31 -13
38 -22z m175 -26 c10 -22 9 -29 -9 -47 -28 -27 -43 -16 -43 33 0 32 3 39 20
39 12 0 25 -10 32 -25z m3296 -2 c6 -38 -64 -83 -83 -53 -9 14 47 81 65 78 8
-2 16 -13 18 -25z m-1768 -138 c15 -13 22 -14 37 -4 16 9 39 7 119 -11 54 -12
125 -26 156 -30 63 -9 124 -41 133 -71 4 -13 -8 -46 -34 -95 -32 -59 -39 -79
-30 -90 13 -16 5 -44 -14 -44 -8 0 -26 -43 -46 -112 -19 -62 -38 -124 -44
-138 -5 -14 -11 -32 -12 -40 -1 -8 -10 -44 -20 -80 -10 -36 -18 -100 -18 -145
-2 -255 124 -292 320 -94 44 44 82 75 90 72 8 -3 13 3 13 17 0 12 38 74 83
138 122 170 216 318 250 392 31 69 149 272 176 304 13 15 25 17 64 13 26 -4
53 -10 60 -14 6 -4 21 -6 33 -5 29 4 84 -44 84 -74 0 -18 -7 -25 -27 -30 -31
-8 -123 -71 -123 -84 0 -5 -20 -37 -44 -72 -24 -35 -73 -115 -110 -178 -64
-111 -65 -115 -46 -129 11 -7 20 -19 20 -27 0 -16 -37 -37 -54 -31 -12 5 -80
-121 -136 -250 -12 -29 -27 -53 -32 -53 -5 0 -8 -6 -6 -12 3 -7 -3 -31 -13
-53 -10 -22 -27 -63 -38 -92 l-20 -52 36 15 c28 12 38 13 44 3 14 -23 -70
-129 -102 -129 -20 0 -38 -42 -20 -48 22 -7 12 -58 -18 -86 -33 -32 -49 -87
-79 -276 -20 -125 -21 -168 -2 -225 10 -31 10 -39 -6 -56 -12 -14 -17 -35 -17
-68 1 -26 -2 -52 -5 -57 -9 -12 -109 -44 -116 -36 -18 17 -3 44 31 58 l37 16
-25 19 c-13 10 -27 19 -31 19 -5 0 -8 7 -8 15 0 8 -4 15 -9 15 -5 0 -18 21
-28 48 -22 56 -26 240 -5 264 6 8 9 17 6 20 -3 4 6 54 20 113 14 59 24 111 21
116 -5 7 19 54 35 69 3 3 11 25 17 50 21 82 95 281 110 295 8 8 12 19 9 23 -3
5 10 42 29 83 26 55 29 66 13 44 -57 -74 -144 -169 -191 -207 -118 -93 -234
-113 -308 -51 -48 41 -60 80 -66 232 l-6 136 -67 -130 c-37 -71 -85 -159 -107
-195 -35 -57 -44 -65 -68 -63 -21 2 -25 -1 -17 -9 19 -19 15 -34 -34 -109
-135 -212 -439 -447 -667 -518 -195 -60 -390 -14 -530 125 -90 89 -201 338
-168 377 9 11 8 17 -5 28 -32 27 1 210 57 321 31 60 133 162 196 195 70 37
171 63 239 62 27 0 68 3 90 6 85 14 205 -31 190 -71 -3 -8 -1 -14 5 -14 6 0 9
-15 7 -32 -2 -23 -10 -36 -25 -43 -12 -5 -25 -21 -28 -35 -16 -63 -51 -85 -95
-58 -25 16 -37 4 -16 -17 15 -15 15 -19 -5 -46 -21 -30 -89 -69 -121 -69 -10
0 -18 -7 -18 -15 0 -17 -47 -51 -57 -41 -10 10 -33 79 -33 99 0 11 9 21 20 24
14 4 20 14 20 33 0 40 19 52 57 38 36 -13 63 1 63 32 0 22 20 31 51 23 14 -4
26 0 34 10 7 10 30 23 51 31 22 8 38 19 36 25 -1 7 2 20 8 30 8 16 5 20 -25
25 -27 5 -39 2 -55 -14 -11 -11 -29 -20 -40 -20 -23 0 -26 10 -8 28 17 17 -3
16 -77 -3 -89 -24 -168 -71 -235 -141 -34 -35 -65 -64 -68 -64 -4 0 -8 -11 -8
-25 -1 -14 3 -25 8 -25 7 0 9 -22 6 -57 -3 -33 0 -65 6 -75 8 -14 5 -23 -18
-47 -15 -16 -25 -34 -22 -39 11 -18 -6 -42 -30 -42 -17 0 -24 6 -24 20 0 11 6
23 14 26 12 4 11 11 -2 45 -8 21 -18 39 -21 39 -3 0 -7 -42 -8 -93 l-2 -93 35
4 c34 4 35 3 32 -24 -2 -21 -9 -30 -26 -32 -34 -5 -36 -22 -11 -88 55 -148
133 -215 292 -253 52 -12 110 -15 120 -5 3 3 1 15 -6 25 -9 15 -8 22 5 35 20
20 58 3 58 -26 0 -27 14 -25 89 10 99 47 179 109 287 223 55 57 109 107 122
111 16 5 22 15 22 36 0 18 17 54 47 96 40 57 46 73 44 109 -2 39 2 46 40 79
24 20 46 36 51 36 12 0 164 316 178 370 6 25 22 56 35 70 13 14 29 38 35 54 8
21 15 27 30 23 17 -4 18 -2 10 14 -7 13 -6 30 6 61 9 24 18 59 21 78 3 19 9
40 14 46 6 8 3 13 -11 17 -25 6 -25 15 0 47 17 22 22 23 40 12 18 -11 21 -9
34 20 7 18 10 37 5 42 -4 5 -73 11 -152 14 -115 4 -180 0 -313 -18 -93 -12
-182 -28 -199 -35 -16 -7 -39 -16 -50 -19 -15 -4 -21 -14 -20 -34 0 -22 -5
-28 -28 -30 -22 -3 -30 1 -34 17 -5 21 -6 21 -50 -5 -25 -14 -46 -24 -47 -22
-27 36 -36 60 -36 99 0 42 4 50 41 84 26 23 48 35 59 32 10 -3 21 1 23 7 6 14
151 44 274 56 124 13 321 5 343 -15z m-1552 -27 c16 -16 15 -45 0 -51 -22 -8
-48 13 -48 38 0 27 27 34 48 13z m790 -55 c3 -17 -2 -23 -15 -23 -28 0 -47 16
-40 35 10 25 51 15 55 -12z m-928 -3 c0 -5 7 -10 15 -10 7 0 18 -8 24 -17 7
-14 13 -15 33 -6 15 7 30 8 39 2 34 -21 -64 -111 -105 -96 -9 4 -16 18 -16 32
0 20 -5 25 -25 25 -21 0 -25 5 -25 28 0 15 5 33 12 40 15 15 48 16 48 2z
m2225 -181 c5 -14 2 -25 -6 -30 -33 -21 -57 -2 -39 31 14 26 37 26 45 -1z
m-2497 -77 c4 -66 -15 -78 -59 -36 -36 34 -36 47 -1 73 42 32 57 24 60 -37z
m2622 13 c0 -30 -50 -65 -92 -65 -23 0 -28 4 -28 25 0 19 5 25 23 25 12 0 33
9 47 20 34 27 50 25 50 -5z m-2492 -64 c5 -30 -8 -42 -36 -35 -22 6 -31 42
-15 58 15 15 48 1 51 -23z m3832 -31 c0 -18 -26 -40 -49 -40 -15 0 -14 33 1
48 19 19 48 15 48 -8z m-192 -146 c-4 -25 -36 -30 -45 -8 -4 11 1 22 12 30 22
16 39 5 33 -22z m-138 -39 c0 -8 -15 -35 -32 -59 -25 -34 -40 -45 -61 -45 -27
-1 -28 1 -25 36 2 28 9 41 26 49 13 6 29 17 35 23 16 16 57 14 57 -4z m-2066
-97 c8 -13 5 -23 -14 -43 -33 -35 -74 -31 -78 8 -2 16 2 35 9 43 16 19 69 14
83 -8z m260 -16 c9 -16 -25 -52 -48 -52 -20 0 -36 16 -36 36 0 16 75 30 84 16z
m566 -28 c0 -20 -28 -43 -52 -44 -25 0 -22 26 4 44 29 21 48 20 48 0z m-2044
-19 c9 -21 -14 -45 -42 -45 -45 0 -21 59 24 60 7 0 15 -7 18 -15z m2772 -12
c-2 -22 -9 -29 -30 -31 -24 -3 -28 0 -28 21 0 30 7 37 37 37 21 0 24 -4 21
-27z m729 10 c4 -11 -9 -31 -46 -65 l-53 -49 27 -34 c31 -41 45 -44 45 -10 0
21 5 25 29 25 30 0 50 -28 36 -50 -3 -5 -1 -10 4 -10 6 0 11 14 11 30 0 23 5
30 19 30 11 0 23 5 26 10 3 6 17 10 31 10 21 0 24 -5 24 -35 0 -33 -2 -35 -32
-36 -18 0 -27 -3 -20 -6 22 -9 14 -49 -13 -63 -14 -8 -31 -25 -38 -39 -15 -31
-52 -39 -77 -16 -12 11 -26 14 -39 10 -37 -11 -61 3 -61 37 0 25 3 29 20 25
11 -3 23 -1 26 5 4 6 -5 8 -22 6 -20 -2 -30 -10 -34 -28 -4 -14 -12 -24 -19
-22 -7 1 -15 -7 -18 -19 -5 -18 -11 -20 -42 -15 -20 3 -53 6 -74 6 -30 0 -40
4 -44 19 -5 20 -58 48 -82 43 -35 -8 -91 35 -76 59 7 10 108 6 143 -6 19 -6
24 -3 29 14 3 13 11 20 19 17 7 -3 18 2 26 11 19 24 99 73 118 73 9 0 32 16
51 36 50 53 94 68 106 37z m-2101 -14 c13 -21 -8 -49 -37 -49 -25 0 -29 4 -29
28 0 16 2 31 5 34 8 7 54 -3 61 -13z m1360 -56 c3 -10 11 -28 16 -40 6 -12 8
-29 5 -37 -9 -22 -34 -20 -42 3 -3 11 -12 22 -20 25 -15 5 -21 47 -8 59 13 13
44 7 49 -10z m214 -26 c0 -20 -32 -47 -54 -47 -14 0 -13 36 0 51 25 27 54 25
54 -4z m-1635 -26 c11 -19 -18 -62 -39 -59 -24 4 -33 33 -16 53 14 17 46 20
55 6z m-1608 -26 c3 -9 -2 -24 -11 -34 -12 -13 -15 -27 -10 -46 5 -20 1 -32
-15 -48 -11 -12 -31 -34 -43 -49 -30 -36 -62 -41 -66 -10 -2 15 7 32 27 51 23
21 31 38 31 63 0 58 70 117 87 73z m1333 -55 c8 -20 19 -30 34 -30 23 0 66 33
66 50 0 6 18 10 40 10 35 0 40 -3 40 -24 0 -13 -6 -29 -14 -36 -22 -17 -8 -40
25 -40 38 0 39 -28 3 -59 -18 -16 -34 -21 -53 -18 -14 3 -39 0 -56 -7 -108
-47 -119 -47 -134 -5 -6 18 -11 45 -11 61 0 21 -6 31 -25 38 -31 12 -31 21 1
59 34 41 67 41 84 1z m-1526 14 c39 -15 -7 -84 -55 -84 -27 0 -39 15 -39 51 0
28 55 48 94 33z m1236 -68 c0 -27 -42 -66 -71 -66 -12 0 -19 -7 -19 -19 0 -21
-45 -55 -60 -46 -13 8 -13 42 0 50 6 3 10 15 10 26 0 13 11 25 33 34 19 8 39
21 47 29 7 9 23 16 36 16 19 0 24 -5 24 -24z m1870 -8 c0 -6 -7 -20 -17 -30
-30 -33 -64 -16 -43 22 12 22 60 28 60 8z m310 -45 c0 -26 -81 -124 -99 -121
-23 5 -15 73 12 110 24 33 87 41 87 11z m80 2 c7 -8 19 -15 26 -15 20 0 17
-41 -4 -68 -19 -25 -69 -28 -65 -5 1 6 -4 17 -12 23 -18 15 -18 20 -5 54 11
29 41 34 60 11z m228 -72 c-2 -22 -9 -29 -30 -31 -22 -3 -28 1 -28 15 0 24 19
43 43 43 14 0 18 -6 15 -27z m-3564 -22 c23 -25 13 -41 -25 -41 -24 0 -29 4
-29 23 0 42 25 50 54 18z m3264 -13 c19 -19 14 -38 -18 -68 -27 -26 -29 -31
-18 -49 11 -19 9 -25 -19 -53 l-33 -32 33 -11 c28 -10 35 -9 55 9 23 21 24 21
38 2 33 -46 3 -92 -73 -112 -36 -9 -45 -8 -58 6 -8 9 -15 21 -15 27 0 6 -11
13 -25 15 -17 4 -25 1 -25 -8 0 -9 -12 -14 -33 -14 -26 0 -35 5 -46 31 -10 23
-10 34 -2 42 6 6 11 26 11 44 0 20 7 36 18 42 16 10 16 12 0 25 -25 19 -22 32
12 56 32 23 60 21 60 -5 0 -11 10 -15 35 -15 33 0 35 2 35 34 0 19 6 37 13 39
22 9 43 7 55 -5z m-2298 -115 c0 -18 -9 -28 -37 -39 -21 -9 -47 -24 -58 -34
-11 -10 -44 -20 -74 -23 -36 -4 -62 -14 -75 -27 l-21 -21 22 -5 c30 -8 37 -44
14 -74 -29 -39 -54 -33 -66 17 -6 23 -13 45 -18 49 -17 17 -4 45 39 83 26 23
53 41 60 41 7 0 19 8 26 18 7 9 27 25 43 34 17 9 32 25 34 35 1 10 10 26 19
36 15 17 18 16 54 -24 22 -24 38 -53 38 -66z m2793 -5 c-1 -16 2 -28 8 -28 5
0 9 9 9 20 0 32 69 56 85 29 12 -18 -43 -89 -75 -95 -26 -6 -28 -9 -23 -39 4
-27 2 -34 -16 -40 -22 -7 -27 -20 -11 -30 21 -13 9 -46 -22 -65 -41 -25 -49
-25 -55 0 -3 11 -14 20 -24 20 -10 0 -23 -9 -29 -20 -6 -11 -21 -20 -33 -20
-13 0 -27 -4 -33 -9 -5 -5 -26 -13 -46 -16 -30 -6 -39 -4 -44 9 -3 9 -15 16
-25 16 -16 0 -19 8 -19 45 0 32 5 47 18 54 14 7 17 18 14 44 -5 41 8 51 81 62
44 7 47 6 47 -15 0 -33 32 -21 51 19 23 50 69 67 69 25 0 -8 5 -14 10 -14 6 0
8 11 4 25 -10 39 2 57 33 53 24 -2 28 -7 26 -30z m-2528 -33 c0 -20 -25 -31
-51 -21 -12 5 -12 9 -2 26 16 26 53 23 53 -5z m-905 -12 c0 -9 -10 -27 -22
-41 -13 -13 -23 -34 -23 -48 -1 -21 3 -24 36 -24 44 0 69 -8 69 -23 0 -16 -31
-47 -48 -47 -8 0 -30 -14 -50 -31 l-36 -32 -17 22 c-10 12 -19 27 -22 34 -4 9
-7 9 -18 0 -15 -15 -59 -17 -59 -4 0 5 5 22 11 38 7 15 11 41 10 56 -2 21 2
30 18 34 11 3 23 13 26 22 7 21 73 60 103 61 14 0 22 -6 22 -17z m2490 -32
c17 -33 12 -53 -11 -49 -31 4 -46 32 -30 52 18 21 28 20 41 -3z m120 -107 c0
-8 -5 -25 -12 -37 -6 -12 -14 -35 -18 -52 -6 -29 -7 -30 -73 -32 l-67 -2 0 29
c0 24 4 30 23 30 12 1 42 19 67 40 47 41 80 51 80 24z m-2852 -11 c5 -10 7
-24 5 -31 -7 -20 -111 -82 -137 -82 -33 0 -54 26 -38 48 7 10 18 28 24 42 18
36 27 40 85 40 40 0 54 -4 61 -17z m3735 -45 c6 -41 -16 -68 -55 -68 -32 0
-36 16 -13 60 25 49 61 53 68 8z m-583 -2 c0 -27 -26 -42 -46 -25 -18 15 0 49
26 49 14 0 20 -7 20 -24z m-880 -1 c16 -19 -3 -45 -32 -45 -24 0 -34 26 -18
45 16 19 34 19 50 0z m-75 -30 c0 -27 -4 -30 -34 -33 -49 -5 -59 11 -25 43 36
33 59 29 59 -10z m1483 -89 c4 -20 -34 -66 -55 -66 -7 0 -16 12 -19 26 -5 21
-2 31 17 45 29 23 52 21 57 -5z m-2310 -8 c17 -17 15 -53 -4 -69 -14 -11 -19
-10 -35 10 -19 23 -25 52 -12 64 10 11 38 8 51 -5z m1982 -19 c0 -14 -48 -41
-67 -37 -24 4 -29 39 -8 54 18 13 75 1 75 -17z m220 -29 c4 -8 12 -25 18 -37
21 -41 15 -63 -17 -63 -15 0 -40 -9 -54 -20 -14 -11 -30 -20 -36 -20 -6 0 -14
-13 -17 -29 -5 -23 -13 -31 -32 -33 -14 -2 -28 -10 -32 -18 -30 -64 -40 -75
-67 -75 -26 0 -28 2 -26 40 5 74 11 88 40 82 33 -6 53 1 53 18 0 7 14 16 30
20 21 5 30 13 30 26 0 14 13 26 43 39 23 11 34 20 24 20 -23 0 -31 23 -17 50
13 24 49 24 60 0z m-3250 -44 c5 -13 22 -28 39 -34 24 -9 31 -17 31 -38 0 -23
-3 -26 -29 -22 -36 5 -42 -10 -34 -88 6 -53 5 -54 -20 -54 -15 0 -32 9 -41 22
-19 26 -21 79 -5 95 8 8 7 20 -5 44 -20 40 -20 45 2 74 22 31 50 32 62 1z
m2937 -22 c2 -7 -6 -24 -19 -38 -28 -31 -68 -27 -68 8 0 34 77 61 87 30z
m-2192 -25 c0 -19 -6 -25 -27 -27 -22 -3 -28 1 -28 17 0 20 27 43 45 37 6 -1
10 -14 10 -27z m1543 -10 c1 -9 -8 -20 -23 -27 -36 -17 -45 -15 -45 8 0 35 61
53 68 19z m150 -11 c3 -27 1 -28 -37 -28 -33 0 -41 4 -41 18 0 26 21 43 50 40
19 -2 26 -10 28 -30z m-1788 -17 c15 -28 13 -35 -16 -65 -34 -33 -58 -33 -73
0 -10 23 -8 29 16 54 34 33 59 37 73 11z m-393 -23 c29 -27 29 -61 1 -88 -28
-26 -58 -26 -58 0 0 11 -4 20 -8 20 -5 0 -6 -14 -4 -31 4 -29 3 -31 -26 -28
-23 3 -37 -3 -56 -24 -46 -49 -77 -26 -50 38 11 26 20 35 39 35 13 0 27 5 30
10 4 6 14 9 23 8 12 -2 16 3 14 17 -3 12 7 28 25 42 35 28 41 28 70 1z m558
14 c17 -12 38 -60 31 -71 -10 -15 -53 -14 -63 2 -4 6 -17 12 -28 12 -20 0 -31
25 -21 51 6 15 63 19 81 6z m315 -17 c10 -13 9 -19 -6 -38 -46 -55 -90 -86
-121 -87 -29 0 -33 -3 -33 -28 0 -61 -52 -71 -75 -15 -22 52 -16 68 23 69 36
1 66 32 67 68 0 15 11 23 50 32 69 16 81 16 95 -1z m335 -53 c5 -19 16 -32 26
-32 9 0 22 -6 28 -14 20 -24 -13 -46 -70 -46 -45 0 -49 -2 -55 -27 -3 -16 -8
-35 -11 -43 -3 -8 -7 -27 -8 -43 -4 -39 -23 -58 -52 -51 -16 4 -30 0 -43 -11
-28 -26 -25 -40 5 -21 33 22 65 21 65 -1 -1 -21 -24 -54 -36 -52 -21 4 -34 -2
-34 -15 0 -9 12 -16 28 -18 22 -2 27 -7 24 -28 -6 -55 -67 -78 -79 -30 -7 26
-15 25 -43 -5 -13 -14 -31 -24 -40 -23 -23 4 -67 -30 -80 -62 -24 -59 -54 -44
-65 33 -6 36 -11 47 -26 47 -10 0 -20 -4 -23 -9 -3 -4 -16 -8 -28 -7 -40 2
-33 37 14 78 124 107 188 158 199 158 6 0 43 31 83 68 39 38 79 72 88 75 9 3
33 31 53 62 40 64 64 69 80 17z m118 12 c10 -10 -12 -44 -28 -44 -18 0 -28 17
-21 35 5 15 37 20 49 9z m154 -14 c3 -11 14 -20 24 -20 10 0 21 -5 24 -11 4
-5 21 -9 38 -7 29 3 32 0 35 -29 3 -25 -3 -36 -31 -57 -19 -14 -40 -26 -48
-26 -8 0 -27 -9 -44 -20 -37 -25 -103 -27 -112 -4 -9 24 8 45 47 58 42 14 49
33 16 46 -31 12 -32 23 -5 61 24 34 49 38 56 9z m880 -10 c7 -14 22 -27 34
-30 31 -7 33 -22 9 -48 -21 -23 -50 -20 -50 5 0 12 -2 12 -16 -1 -28 -28 -55
-12 -61 35 -7 63 57 93 84 39z m-2706 -42 c5 -21 1 -32 -21 -53 -37 -36 -74
-31 -78 10 -3 23 3 35 25 52 36 30 65 26 74 -9z m717 -16 c3 -17 -12 -37 -59
-81 -34 -33 -68 -57 -75 -54 -22 8 -23 30 -3 51 10 12 19 24 19 28 0 4 15 24
33 45 38 44 80 50 85 11z m140 -84 c-2 -24 -10 -36 -30 -46 -24 -11 -28 -19
-28 -55 0 -33 -6 -48 -32 -74 -49 -50 -90 -38 -56 17 10 15 9 24 -2 45 -11 21
-12 30 -2 45 7 11 12 33 12 50 0 29 2 30 35 28 19 -1 40 3 47 10 7 7 23 12 36
12 20 0 23 -4 20 -32z m97 -23 c0 -49 -1 -50 -29 -48 -36 3 -46 17 -46 65 0
35 1 36 38 35 l37 -2 0 -50z m1092 0 c8 -22 -24 -54 -48 -48 -24 7 -24 11 3
40 25 27 36 29 45 8z m578 -15 c0 -20 -6 -26 -26 -28 -28 -3 -43 16 -32 44 3
9 15 14 32 12 20 -2 26 -8 26 -28z m-2225 -21 c0 -44 -17 -69 -45 -69 -23 0
-25 4 -25 50 l0 50 35 0 c32 0 35 -2 35 -31z m2828 -11 c13 -17 -3 -58 -21
-58 -8 0 -20 7 -27 15 -10 13 -10 19 5 35 21 23 29 25 43 8z m-98 -11 c0 -19
-37 -50 -49 -42 -12 7 -15 38 -4 48 12 12 53 7 53 -6z m-2856 -33 c0 -16 5
-33 13 -37 18 -11 16 -27 -4 -43 -38 -29 -123 -5 -110 31 4 8 13 15 21 15 8 0
18 9 21 20 8 27 35 52 49 47 6 -2 11 -17 10 -33z m1692 -9 c8 -20 -13 -45 -38
-45 -27 0 -35 30 -13 46 25 18 44 18 51 -1z m207 -79 c-6 -40 14 -93 38 -99
22 -6 52 -68 47 -99 -7 -53 -113 -43 -121 12 -4 22 -4 21 -6 -5 -1 -35 -17
-55 -43 -55 -10 0 -18 -6 -18 -13 0 -30 -32 -77 -52 -77 -11 0 -22 -8 -25 -20
-3 -11 -9 -20 -14 -20 -20 0 -89 54 -89 69 0 22 19 41 42 41 15 0 17 5 12 25
-8 33 33 54 71 37 22 -10 25 -9 25 8 0 10 14 28 30 40 28 20 30 25 30 91 0 67
1 70 32 89 40 24 48 19 41 -24z m-415 -63 c3 -22 -22 -48 -38 -38 -14 8 -13
38 2 53 16 16 32 10 36 -15z m307 -12 c0 -31 -5 -37 -50 -62 -58 -33 -64 -34
-71 -14 -15 38 56 117 101 112 16 -2 20 -9 20 -36z m600 -6 c0 -22 -22 -30
-44 -16 -21 14 -5 43 21 39 15 -2 23 -10 23 -23z m-2078 -10 c6 -18 -23 -55
-44 -55 -22 0 -27 29 -8 50 22 24 43 26 52 5z m431 -47 c-2 -17 -10 -23 -28
-23 -18 0 -26 6 -28 23 -3 19 1 22 28 22 27 0 31 -3 28 -22z m1532 -2 c0 -17
-10 -30 -34 -44 -19 -11 -37 -18 -40 -15 -12 12 -5 37 16 60 29 31 58 30 58
-1z m-1512 -75 c5 -45 -15 -81 -44 -81 -21 0 -22 4 -20 48 3 59 12 74 39 70
15 -2 22 -12 25 -37z m330 16 c3 -17 -50 -51 -62 -40 -13 14 -5 41 17 51 27
13 41 10 45 -11z m-491 -41 c-7 -18 -65 -56 -84 -56 -7 0 -13 11 -13 25 0 21
9 30 42 45 44 20 66 14 55 -14z m1439 -31 c5 -17 -24 -48 -39 -42 -10 4 -13
15 -9 32 3 19 10 25 25 23 11 -2 22 -7 23 -13z m181 -35 c3 -11 14 -20 24 -20
27 0 32 -16 14 -49 -20 -39 -25 -42 -77 -35 -37 5 -44 10 -43 28 1 30 44 96
62 96 8 0 17 -9 20 -20z m-1370 -69 c14 -29 5 -51 -31 -70 -41 -22 -60 -8 -52
41 4 22 9 45 12 50 11 18 58 3 71 -21z m123 4 c0 -25 -69 -119 -103 -139 -14
-9 -21 -7 -32 7 -19 26 -10 43 49 105 55 57 86 67 86 27z m-252 -47 c-2 -25
-8 -33 -22 -33 -10 0 -23 7 -29 16 -15 24 -1 49 28 49 24 0 26 -3 23 -32z m-3
-78 c0 -27 -45 -56 -71 -46 -24 9 -16 44 14 60 37 21 57 16 57 -14z m1035 -50
c12 -7 11 -13 -10 -34 -26 -29 -60 -35 -60 -11 0 16 34 55 48 55 4 0 14 -5 22
-10z"/>
<path d="M1248 2253 c7 -3 16 -2 19 1 4 3 -2 6 -13 5 -11 0 -14 -3 -6 -6z"/>
<path d="M4013 2323 c-29 -4 -33 -8 -33 -34 0 -36 13 -38 28 -4 6 14 18 25 27
25 8 0 15 5 15 10 0 6 -1 9 -2 8 -2 0 -18 -3 -35 -5z"/>
<path d="M1973 1025 c-7 -8 -13 -19 -13 -25 0 -6 -8 -13 -17 -17 -23 -8 -53
-34 -53 -45 0 -4 11 -8 25 -8 23 0 85 52 85 71 0 4 3 14 6 23 8 20 -16 21 -33
1z"/>
</g>
</svg>
